<?xml version="1.0" encoding="UTF-8"?>
<svg version="1.1" xmlns="http://www.w3.org/2000/svg" width="1146" height="1019">
<path d="M0 0 C378.18 0 756.36 0 1146 0 C1146 336.27 1146 672.54 1146 1019 C767.82 1019 389.64 1019 0 1019 C0 682.73 0 346.46 0 0 Z " fill="#001F3F" transform="translate(0,0)"/>
<path d="M0 0 C180.85288948 0 180.85288948 0 206.59814453 5.50048828 C209.63008204 6.13103759 212.67209448 6.70125881 215.71484375 7.27734375 C237.33430167 11.450891 257.12598753 17.55781221 277 27 C277.94480225 27.44061768 277.94480225 27.44061768 278.90869141 27.89013672 C292.02309877 34.02559338 303.99063212 41.57904838 315 51 C315.80824219 51.68578125 316.61648438 52.3715625 317.44921875 53.078125 C329.29253713 63.41546412 338.56616299 74.81717248 347 88 C347.37253906 88.57443848 347.74507812 89.14887695 348.12890625 89.74072266 C364.92702261 115.98390537 369.17829126 146.08816134 369.24023438 176.60546875 C369.2498868 179.46644778 369.28097592 182.32669014 369.3125 185.1875 C369.38397569 197.71869294 368.27574086 209.68122975 366 222 C365.85490494 222.79193253 365.70980988 223.58386505 365.56031799 224.39979553 C361.36562058 246.98004771 352.16341804 269.14800673 339 288 C338.33097656 288.96679688 337.66195313 289.93359375 336.97265625 290.9296875 C316.89625994 318.45322569 289.06062263 336.99449953 258 350 C262.36554496 358.08715936 266.86817771 366.08895951 271.4375 374.0625 C272.1404935 375.29067221 272.84345509 376.51886269 273.54638672 377.74707031 C283.53608352 395.19378097 293.58711232 412.60435073 303.73095703 429.96191406 C308.65075198 438.38597431 313.52531212 446.8356965 318.39453125 455.2890625 C322.57349158 462.53951541 326.77747989 469.77483863 331 477 C337.74117224 488.53702664 344.42166947 500.1085182 351.09130859 511.68701172 C366.79673972 538.96944054 366.79673972 538.96944054 382.61328125 566.1875 C383.23710693 567.25532715 383.86093262 568.3231543 384.50366211 569.42333984 C385.71577322 571.49713307 386.9287701 573.57040893 388.14282227 575.64306641 C390.75515503 580.11134201 393.35751238 584.58547507 395.9140625 589.0859375 C396.52048584 590.15013916 396.52048584 590.15013916 397.13916016 591.23583984 C398 593 398 593 398 595 C365 595 332 595 298 595 C293.38 586.09 288.76 577.18 284 568 C279.5079567 559.75629523 279.5079567 559.75629523 274.99609375 551.5234375 C271.74061578 545.56203801 268.61712158 539.5345995 265.5 533.5 C261.42607314 525.61338072 257.27828982 517.77768255 253 510 C248.72170965 502.22231648 244.57395882 494.38660357 240.5 486.5 C235.93153843 477.65645808 231.24460168 468.89027944 226.44921875 460.16796875 C222.35504666 452.70149176 218.4151884 445.16083481 214.49755859 437.60058594 C211.10041608 431.06260565 207.61210922 424.58132535 204.0625 418.125 C199.08296085 409.06598695 194.27628358 399.92487421 189.53930664 390.73681641 C186.48969147 384.82815664 183.35890351 378.9810202 180.09716797 373.1862793 C179 371 179 371 179 369 C173.39 369.33 167.78 369.66 162 370 C136.59 370 111.18 370 85 370 C85 444.58 85 519.16 85 596 C56.95 596 28.9 596 0 596 C0 399.32 0 202.64 0 0 Z " fill="#C469CD" transform="translate(439,159)"/>
<path d="M0 0 C139.08114207 0 139.08114207 0 176.4375 36 C197.90902201 58.62741145 202.11086781 85.5264288 201.34765625 115.54296875 C200.36834509 146.22701925 190.17161522 175.06140565 167.5 196.4375 C121.51378306 236.19709236 55.62331931 228 0 228 C0 152.76 0 77.52 0 0 Z " fill="#001E3E" transform="translate(524,231)"/>
<path d="M0 0 C3.64990089 3.02632679 6.99117699 6.29903374 10.29931641 9.69238281 C10.96447266 10.34851563 11.62962891 11.00464844 12.31494141 11.68066406 C25.25499292 25.29103356 30.69489423 42.53797353 30.79931641 60.94238281 C30.80576172 62.01907227 30.81220703 63.09576172 30.81884766 64.20507812 C30.4968873 84.43285687 21.84136868 102.45556704 8.10009766 117.05175781 C-6.60794556 130.91875532 -25.27004411 138.35037018 -45.40771484 137.96582031 C-61.64858556 137.227765 -76.8103607 129.41657947 -88.70068359 118.69238281 C-89.38517578 118.10070312 -90.06966797 117.50902344 -90.77490234 116.89941406 C-105.02284765 103.77115011 -112.92152059 84.58689822 -113.95068359 65.50878906 C-114.72813802 44.21299739 -107.72175956 25.93096008 -93.70068359 9.69238281 C-83.68723431 -0.85600867 -71.47040691 -7.84420294 -57.70068359 -12.30761719 C-56.94529297 -12.55382812 -56.18990234 -12.80003906 -55.41162109 -13.05371094 C-36.70401836 -18.13349071 -15.09821358 -11.60867527 0 0 Z " fill="#FDFEFE" transform="translate(202.70068359375,271.3076171875)"/>
<path d="M0 0 C1.1330692 0.92773133 2.25906382 1.86422911 3.375 2.8125 C4.365 3.555 5.355 4.2975 6.375 5.0625 C20.44684176 17.03121323 28.69626151 35.80452941 30.59375 53.8984375 C31.45691093 73.2476284 22.31830916 91.51540697 9.87890625 105.6484375 C-2.04025533 118.27686704 -18.91596807 127.93095514 -36.57836914 128.98950195 C-63.51650732 129.525149 -63.51650732 129.525149 -73.625 124.8125 C-74.77613281 124.31492187 -75.92726563 123.81734375 -77.11328125 123.3046875 C-94.84999518 115.30409449 -109.11614047 100.89137435 -116.43896484 82.80175781 C-123.29740201 64.36282526 -123.9652562 46.96954949 -115.78027344 28.953125 C-106.43638529 9.58240671 -89.66496 -4.47205698 -69.64697266 -11.92382812 C-45.84584605 -19.95139159 -20.04510202 -14.74801233 0 0 Z " fill="#FEFEFE" transform="translate(375.625,639.1875)"/>
<path d="M0 0 C0.98097656 0.36351562 1.96195312 0.72703125 2.97265625 1.1015625 C22.51581488 8.76070179 38.65148262 22.83733296 47.41015625 42.1015625 C54.92127135 60.45233349 54.72224751 77.87049166 47.15527344 96.02685547 C42.7368121 105.89377384 36.69385636 113.48824675 29 121 C28.35546875 121.66515625 27.7109375 122.3303125 27.046875 123.015625 C11.90707798 137.62882039 -8.72384678 141.5422084 -28.90234375 141.265625 C-48.64343551 140.64862137 -65.5615399 130.96176463 -79 117 C-79.66257812 116.35675781 -80.32515625 115.71351563 -81.0078125 115.05078125 C-92.59132221 103.07769162 -99.32856253 84.65448499 -99.31030273 68.20849609 C-98.87071977 48.05493846 -89.24681769 30.73264683 -75 17 C-74.37996094 16.34902344 -73.75992188 15.69804688 -73.12109375 15.02734375 C-55.49048425 -2.28772912 -22.99915982 -8.97003113 0 0 Z " fill="#FEFEFE" transform="translate(152,822)"/>
<path d="M0 0 C18.70260828 -0.76423825 37.24784095 7.71711341 50.90234375 20.2265625 C63.93437112 32.79757058 73.68601827 50.20576573 74.33984375 68.57421875 C74.34769343 70.77343737 74.3397321 72.97276608 74.31640625 75.171875 C74.32800781 76.26177734 74.33960938 77.35167969 74.3515625 78.47460938 C74.2751372 99.91190591 64.73123379 118.0220337 49.78662109 132.94995117 C37.13401798 144.92452569 18.67648498 152.83919212 1.24609375 152.484375 C-20.10257343 150.8693458 -37.39814888 141.39890394 -52.05859375 126.234375 C-66.30369 109.23557985 -71.56833444 87.69634692 -69.78515625 65.890625 C-67.08564719 44.90576215 -55.65283461 27.4004781 -39.30859375 14.421875 C-27.49322543 5.94931623 -14.487826 1.11017824 0 0 Z " fill="#FEFEFE" transform="translate(159.05859375,447.765625)"/>
<path d="M0 0 C1.56234375 0.51046875 1.56234375 0.51046875 3.15625 1.03125 C22.06294013 7.69360747 36.87597363 21.27084923 46 39 C51.27572639 50.09255293 53.34770958 59.52523318 53.3125 71.75 C53.32861328 72.8534375 53.34472656 73.956875 53.36132812 75.09375 C53.37305095 95.0694462 45.00629861 113.19090519 31.43359375 127.65625 C18.65401296 139.96403246 0.79589375 149.04021407 -17.125 149.375 C-38.82514104 148.62421387 -57.09230277 139.60451593 -72 124 C-81.64565216 112.64930831 -86.737685 100.33745616 -90 86 C-90.19335938 85.18917969 -90.38671875 84.37835938 -90.5859375 83.54296875 C-93.80143992 63.79493032 -88.08202319 44.10756861 -76.83203125 27.87109375 C-63.98764168 11.52575552 -46.80640883 0.2946691 -26.0390625 -2.68359375 C-16.73487041 -3.65228213 -8.85959205 -3.01810279 0 0 Z " fill="#FEFEFE" transform="translate(180,59)"/>
<path d="M0 0 C1.59579319 1.33946105 3.18021381 2.69265215 4.75 4.0625 C5.36488281 4.58199219 5.97976563 5.10148438 6.61328125 5.63671875 C19.85559948 17.72223676 27.30153246 36.03942411 29.10546875 53.50390625 C29.88227253 71.95824465 20.85692658 90.59415196 8.75 104.0625 C8.23179687 104.67351562 7.71359375 105.28453125 7.1796875 105.9140625 C-3.77263139 117.96711696 -21.97251024 126.61375013 -38.03344727 128.36621094 C-40.84211763 128.49840705 -43.62594515 128.53053163 -46.4375 128.5 C-47.4370874 128.49170166 -48.4366748 128.48340332 -49.46655273 128.47485352 C-67.3057615 128.07244381 -83.8786746 122.11086741 -97.25 110.0625 C-98.14460938 109.26070312 -99.03921875 108.45890625 -99.9609375 107.6328125 C-110.68564083 97.49576415 -116.98534057 86.18594703 -121.25 72.0625 C-121.61931641 70.91394531 -121.61931641 70.91394531 -121.99609375 69.7421875 C-126.54886545 53.22661568 -121.82622481 36.94107235 -114.09375 22.24609375 C-111.51350167 17.79079208 -108.68655673 13.89020953 -105.25 10.0625 C-104.53328125 9.25296875 -103.8165625 8.4434375 -103.078125 7.609375 C-93.34153904 -2.76358913 -81.82726821 -9.71897541 -68.25 -13.9375 C-67.46882813 -14.18242188 -66.68765625 -14.42734375 -65.8828125 -14.6796875 C-43.50306724 -20.33270274 -17.91279316 -13.98929617 0 0 Z " fill="#FEFEFE" transform="translate(568.25,834.9375)"/>
<path d="M0 0 C1.56234375 0.46019531 1.56234375 0.46019531 3.15625 0.9296875 C22.55870073 7.15392501 38.06317138 20.17826328 48 38 C57.45529163 57.66023553 58.83823586 79.27544664 52 100 C43.98522358 121.01579101 28.38483976 136.15704016 8.08203125 145.31640625 C-8.74187814 151.89545307 -25.7574531 151.41349638 -42.234375 144.234375 C-50.31538851 140.47244234 -57.38843831 136.03181654 -64 130 C-64.91265625 129.22462891 -64.91265625 129.22462891 -65.84375 128.43359375 C-77.67245841 117.7071059 -86.99439421 99.38229249 -88.18725586 83.50805664 C-88.26720718 80.8975587 -88.27800126 78.29903596 -88.25 75.6875 C-88.24250732 74.76324219 -88.23501465 73.83898437 -88.22729492 72.88671875 C-87.91094049 52.75314535 -80.80725989 34.66505111 -66.9765625 19.85546875 C-49.3449486 3.30405254 -24.14447447 -7.85522286 0 0 Z " fill="#FEFEFE" transform="translate(372,259)"/>
<path d="M0 0 C0.98097656 0.36351562 1.96195312 0.72703125 2.97265625 1.1015625 C14.33343315 5.55395294 23.30372434 11.44675519 32 20 C32.70125 20.68835938 33.4025 21.37671875 34.125 22.0859375 C46.78111273 35.38474345 53.8436093 52.97910145 53.59423828 71.32568359 C52.81398798 87.29480636 45.50543168 103.13158816 35 115 C34.28199219 115.81210937 33.56398438 116.62421875 32.82421875 117.4609375 C19.10768526 132.05299441 1.40754873 140.37733951 -18.59375 141.23828125 C-39.23158274 141.70927348 -57.98147269 136.83339583 -73.5625 122.5625 C-75.43454952 120.75347614 -77.21347218 118.8976775 -79 117 C-79.73605469 116.22140625 -80.47210938 115.4428125 -81.23046875 114.640625 C-93.01366889 101.05689718 -99.97202052 82.62761679 -99.375 64.6796875 C-97.73068938 48.54488958 -89.85984619 32.90363509 -79 21 C-78.48308594 20.3915625 -77.96617187 19.783125 -77.43359375 19.15625 C-59.41527953 -0.71357019 -25.1993915 -9.82815581 0 0 Z " fill="#FEFEFE" transform="translate(353,822)"/>
<path d="M0 0 C13.58630309 8.86355194 22.63880022 21.82902318 26.875 37.5 C29.56327071 53.59941894 26.04448355 69.20969969 17.4375 83 C7.43615278 96.15271512 -6.08550483 105.42038581 -22.5625 108 C-38.57732569 109.05644104 -53.20157134 106.9927164 -66.296875 96.890625 C-68.81734313 94.67566816 -71.20462867 92.38657585 -73.5625 90 C-74.21089844 89.37351562 -74.85929688 88.74703125 -75.52734375 88.1015625 C-85.43253721 77.82790451 -89.51294415 63.09250479 -90 49.125 C-89.57809277 33.30347901 -83.51185633 19.50539721 -72.71875 8.02734375 C-65.93384538 1.64805843 -58.18315943 -2.59509458 -49.5625 -6 C-48.68980469 -6.36609375 -47.81710937 -6.7321875 -46.91796875 -7.109375 C-31.01204872 -11.33120243 -14.02449442 -8.0080693 0 0 Z " fill="#FDFEFE" transform="translate(1033.5625,449)"/>
<path d="M0 0 C13.20396723 9.18536851 21.57199863 21.48147162 25.65234375 36.9921875 C26.24806861 40.99772799 26.24683551 44.9557767 26.25 49 C26.26224609 49.80824219 26.27449219 50.61648438 26.28710938 51.44921875 C26.324629 67.08239596 19.5927389 81.35582385 8.67578125 92.421875 C-3.55133434 103.31479113 -18.29765219 108.9933861 -34.61328125 108.1328125 C-51.67042521 106.78331912 -65.30504957 100.46367179 -76.9375 87.75 C-88.59406653 72.69360156 -90.95737353 57.12655483 -89.734375 38.6875 C-87.70157272 23.83920505 -78.57141102 11.88685021 -67.32421875 2.58984375 C-47.43975189 -11.97560554 -21.08002444 -12.49078796 0 0 Z " fill="#FDFEFE" transform="translate(1035.9375,877.25)"/>
<path d="M0 0 C12.654991 9.09259407 21.59906247 21.7814077 24.9140625 37.09375 C25.34769523 40.83450561 25.43916645 44.51756416 25.4140625 48.28125 C25.40834229 49.28575195 25.40262207 50.29025391 25.39672852 51.32519531 C25.00857787 67.63013639 18.39301403 81.68092722 6.5703125 92.95703125 C-8.01255216 104.68765914 -23.7227881 108.19922388 -42.0859375 107.09375 C-57.27083936 105.06909642 -70.51446491 96.22494505 -79.8984375 84.34375 C-84.00464621 78.59070493 -86.84904141 72.78564081 -89.0859375 66.09375 C-89.33085938 65.3821875 -89.57578125 64.670625 -89.828125 63.9375 C-93.75490452 49.95170993 -91.38090562 34.29116833 -85.0234375 21.53125 C-76.61658338 6.82804906 -63.59833166 -3.88085143 -47.22485352 -8.47412109 C-30.80491965 -11.79146876 -14.09122365 -8.77448227 0 0 Z " fill="#FDFEFE" transform="translate(1036.0859375,663.90625)"/>
<path d="M0 0 C180 0 180 0 200 4 C202.35635447 4.32176697 204.71286277 4.64328644 207.07299805 4.93603516 C247.54689398 10.04042176 291.13806946 24.36454402 322 52 C322.72993164 52.64171143 322.72993164 52.64171143 323.47460938 53.29638672 C345.86511586 72.99804594 362.39052496 97.34582963 371 126 C371.37769531 127.23363281 371.75539063 128.46726562 372.14453125 129.73828125 C386.03821788 179.84921842 378.66929457 237.87941094 353.6875 283.1875 C347.22677389 294.58234963 338.98516012 304.49760205 330 314 C329.154375 314.92167969 328.30875 315.84335937 327.4375 316.79296875 C310.91062332 334.39168445 289.91011639 346.36598016 268 356 C277.07360082 372.69943911 286.3194637 389.29350215 296.0378418 405.62719727 C302.15707497 415.91800701 308.11899931 426.29854106 314.08837891 436.67675781 C324.33281517 454.48611496 334.63239073 472.26208012 345 490 C355.36158778 507.72761771 365.64719111 525.49769914 375.89550781 543.29101562 C383.8196738 557.04694276 391.77244263 570.78534246 399.78125 584.4921875 C400.29945313 585.3800293 400.81765625 586.26787109 401.3515625 587.18261719 C402.55087005 589.23238158 403.75458783 591.27956751 404.9609375 593.32519531 C405.60289062 594.41670898 406.24484375 595.50822266 406.90625 596.6328125 C407.49728516 597.6345752 408.08832031 598.63633789 408.69726562 599.66845703 C410 602 410 602 410 603 C400.97338723 603.13349231 391.94673676 603.26399579 382.9200325 603.39115143 C378.72401122 603.4503431 374.5280067 603.51039178 370.33203125 603.57275391 C346.88634484 603.9203805 323.44826089 604.06937513 300 604 C299.44012642 602.91609985 299.44012642 602.91609985 298.86894226 601.81030273 C292.52246166 589.52686596 286.11359091 577.28963214 279.45214844 565.17333984 C275.35702723 557.70505412 271.41612833 550.1626487 267.49755859 542.60058594 C264.1004159 536.0626053 260.61208782 529.5813369 257.0625 523.125 C252.18894716 514.25819575 247.49918303 505.30599084 242.85571289 496.31689453 C239.3228528 489.49565565 235.70232906 482.73061932 232 476 C227.1457943 467.17533581 222.47770065 458.26443237 217.85546875 449.31640625 C214.32267647 442.49533475 210.70217186 435.73049957 207 429 C202.10401306 420.09739335 197.37434813 411.11642137 192.71484375 402.08789062 C188.54758864 394.01719888 184.27592299 386.0173556 180 378 C151.29 378 122.58 378 93 378 C93 452.58 93 527.16 93 604 C62.31 604 31.62 604 0 604 C0 404.68 0 205.36 0 0 Z M4 4 C4 200.68 4 397.36 4 600 C32.05 600 60.1 600 89 600 C89 525.42 89 450.84 89 374 C114.41 374 139.82 374 166 374 C171.61 373.67 177.22 373.34 183 373 C183.66 374.98 184.32 376.96 185 379 C186.13962312 381.33248512 187.3046715 383.61570752 188.53515625 385.8984375 C188.88550934 386.55739014 189.23586243 387.21634277 189.59683228 387.89526367 C190.74773804 390.05750845 191.90509428 392.21622861 193.0625 394.375 C193.87455116 395.89771127 194.68614901 397.42066437 195.49731445 398.94384766 C197.17145077 402.08614873 198.84798252 405.22715362 200.52636719 408.3671875 C202.84075475 412.69885901 205.14511872 417.03577777 207.4453125 421.375 C214.68476222 435.02942088 221.95799914 448.66503163 229.26635742 462.28271484 C234.21045397 471.50449293 239.10988874 480.74950073 244 490 C252.57423366 506.21847948 261.22501907 522.39479097 269.91015625 538.55419922 C276.97482889 551.69924826 284.0175685 564.85337486 290.8815918 578.10473633 C294.51531567 585.11277454 298.25566431 592.04623372 302 599 C335 599 368 599 402 599 C400.52567141 594.57701424 399.29659767 591.47409784 397.015625 587.5703125 C396.4175 586.54035156 395.819375 585.51039063 395.203125 584.44921875 C394.55859375 583.35222656 393.9140625 582.25523437 393.25 581.125 C392.57241378 579.96253256 391.89533873 578.79976703 391.21875 577.63671875 C389.48455261 574.6585033 387.74407437 571.68401375 386.00170898 568.71057129 C384.4718065 566.09802882 382.94688494 563.48258809 381.421875 560.8671875 C379.70556027 557.9239578 377.98887303 554.98095302 376.27026367 552.0390625 C370.10215467 541.47750423 363.99600648 530.88040929 357.89111328 520.28222656 C354.76319854 514.85340062 351.63146269 509.42677993 348.5 504 C344.73636081 497.47766725 340.97355378 490.95486238 337.21484375 484.4296875 C330.59858883 472.94693103 323.95609989 461.48039099 317.26928711 450.03857422 C312.34948718 441.61430661 307.47477862 433.16446104 302.60546875 424.7109375 C298.426508 417.46048387 294.22241643 410.22522247 290 403 C284.9805753 394.40702535 279.97969172 385.80354763 275 377.1875 C274.38898438 376.13240234 273.77796875 375.07730469 273.1484375 373.99023438 C269.33240486 367.37942012 265.62268192 360.7187148 262 354 C262.51159668 353.78496826 263.02319336 353.56993652 263.55029297 353.34838867 C285.35386429 344.09316364 304.75773402 332.37118568 322 316 C322.5067627 315.52578613 323.01352539 315.05157227 323.53564453 314.56298828 C331.33104835 307.23151291 338.00097225 299.63161322 343.88867188 290.68798828 C344.93332487 289.10127237 346.00487284 287.53235677 347.078125 285.96484375 C364.08700189 260.01626189 373.12796676 227.02582972 373.16796875 196.12890625 C373.17129715 195.20770493 373.17462555 194.2865036 373.17805481 193.33738708 C373.18308939 191.39525852 373.18546422 189.45312141 373.18530273 187.51098633 C373.18747088 184.60157222 373.20561339 181.69254947 373.22460938 178.78320312 C373.27095817 163.76779231 372.72256434 148.72563924 368.875 134.125 C368.55631958 132.89656372 368.55631958 132.89656372 368.23120117 131.64331055 C358.32475455 95.18994978 334.8463298 63.3481831 303 43 C302.07670898 42.40469482 302.07670898 42.40469482 301.13476562 41.79736328 C289.05195356 34.09747218 276.25777541 28.37306134 263 23 C262.32340332 22.72285156 261.64680664 22.44570312 260.94970703 22.16015625 C244.36727784 15.46384105 226.37127758 12.50359617 208.8215332 9.51489258 C204.53700655 8.733023 200.2707062 7.85414124 196 7 C132.23990781 1.37410951 68.00781202 4 4 4 Z " fill="#030307" transform="translate(435,155)"/>
<path d="M0 0 C11.29335981 7.62978752 19.57601453 18.21081857 22.375 31.8125 C23.89278401 44.02972434 19.81103395 55.23519972 12.375 64.8125 C11.611875 65.864375 10.84875 66.91625 10.0625 68 C2.35300135 76.06807999 -9.41722303 82.15973025 -20.62109375 83.05078125 C-35.02742789 83.36147404 -46.97112013 79.47431251 -57.83984375 69.8515625 C-66.71388961 60.68796045 -72.0421573 48.91044263 -71.90234375 36.171875 C-71.10269441 26.48598154 -67.48164259 18.43900711 -61.625 10.8125 C-60.75875 9.513125 -60.75875 9.513125 -59.875 8.1875 C-44.37591868 -8.1726414 -19.18219529 -11.4465961 0 0 Z " fill="#FDFDFD" transform="translate(962.625,115.1875)"/>
<path d="M0 0 C2.03406158 1.43050573 3.86495435 2.95271955 5.71484375 4.61328125 C6.39160156 5.18691406 7.06835938 5.76054688 7.765625 6.3515625 C16.98212009 14.73492809 21.52717894 26.03793311 22.15234375 38.30078125 C21.90308696 49.94253953 16.3269815 60.05647173 8.71484375 68.61328125 C-1.87927486 78.55915834 -14.63128225 83.28065119 -29.14453125 82.90234375 C-33.81900784 82.47210586 -37.93604176 81.34842019 -42.28515625 79.61328125 C-42.95933594 79.34644531 -43.63351562 79.07960938 -44.328125 78.8046875 C-57.13956999 73.05104454 -65.63780429 62.88131575 -70.55859375 49.9375 C-73.83573242 39.45418007 -72.80660343 29.56046505 -68.28515625 19.61328125 C-61.45892266 7.7856488 -51.99873743 -0.90930305 -39.01171875 -5.55859375 C-25.47031884 -8.56779373 -11.90236314 -7.22280156 0 0 Z " fill="#FDFDFD" transform="translate(1087.28515625,115.38671875)"/>
<path d="M0 0 C12.70387869 6.58200959 20.09922063 16.8310717 25.1328125 29.953125 C28.45392073 41.62188364 25.14969167 52.13159355 19.68359375 62.49609375 C14.46593664 71.07326798 6.48729474 78.50839339 -3 82 C-3.79664063 82.29648437 -4.59328125 82.59296875 -5.4140625 82.8984375 C-17.31228052 86.72411822 -29.65445543 86.28914596 -41 81 C-44.19647239 79.2191797 -47.1001172 77.22679589 -50 75 C-50.61488281 74.56042969 -51.22976563 74.12085938 -51.86328125 73.66796875 C-61.62433376 66.15780196 -66.6551637 54.31680408 -68.37890625 42.375 C-68.94334757 31.01334256 -63.57821081 20.8932893 -57 12 C-56.28457031 11.02933594 -56.28457031 11.02933594 -55.5546875 10.0390625 C-42.23678694 -5.3706549 -17.81020984 -7.90743756 0 0 Z " fill="#FDFDFD" transform="translate(959,233)"/>
<path d="M0 0 C1.24112549 0.01135986 1.24112549 0.01135986 2.50732422 0.02294922 C14.71382124 0.34899525 24.37422179 4.71150348 33.375 12.875 C34.138125 13.720625 34.90125 14.56625 35.6875 15.4375 C36.16832031 15.91445312 36.64914062 16.39140625 37.14453125 16.8828125 C44.58710673 24.68338528 48.08893751 35.43958049 47.9609375 46.05078125 C46.96578369 58.37647201 41.31253782 69.36447397 32.375 77.8125 C27.8446681 81.5673005 23.12165634 84.21328717 17.6875 86.4375 C16.90761719 86.7571875 16.12773438 87.076875 15.32421875 87.40625 C4.03831698 91.39602869 -7.51507521 90.30604838 -18.3125 85.4375 C-32.31482207 78.11320846 -39.53723725 69.12961793 -45.3125 54.4375 C-48.29352909 42.60317366 -45.38734489 32.65832939 -39.5625 22.25 C-30.72156038 8.30341775 -16.58095368 -0.21480569 0 0 Z " fill="#FDFDFD" transform="translate(819.3125,108.5625)"/>
<path d="M0 0 C0.85207031 0.26683594 1.70414063 0.53367187 2.58203125 0.80859375 C18.77441436 6.54605233 29.19684199 19.03461292 36.37109375 34.0703125 C42.60742054 48.27724538 40.86489445 63.67811446 36 78 C32.69128187 85.97511694 27.65394927 93.4227807 21 99 C19.68 99 18.36 99 17 99 C-1.80859375 66.3984375 -1.80859375 66.3984375 -3.65893555 63.19116211 C-4.89345455 61.05134009 -6.12799252 58.91152901 -7.36254883 56.77172852 C-10.53901729 51.26604318 -13.71513459 45.76015576 -16.890625 40.25390625 C-17.53128906 39.14337891 -18.17195312 38.03285156 -18.83203125 36.88867188 C-20.09607243 34.69655159 -21.3591174 32.50385651 -22.62109375 30.31054688 C-25.52791704 25.26234311 -28.45031272 20.2252567 -31.421875 15.21484375 C-31.94426758 14.32917725 -32.46666016 13.44351074 -33.00488281 12.53100586 C-33.97667817 10.88590422 -34.95485745 9.24455116 -35.94042969 7.60766602 C-37.02114936 5.77296067 -38.02032889 3.89059336 -39 2 C-38 0 -38 0 -35.76953125 -0.8515625 C-23.42615767 -4.08008029 -12.14880695 -3.91405077 0 0 Z " fill="#FCFCFD" transform="translate(827,658)"/>
<path d="M0 0 C9.20042619 4.68040698 15.73120776 12.06799556 18.98828125 21.9765625 C21.27852293 32.92091415 18.91989934 42.94338476 13.1484375 52.4140625 C8.12136773 58.93063442 0.2883307 63.09875702 -7.53515625 65.25390625 C-17.74790921 66.30575865 -26.67080572 65.27979566 -35.2265625 59.40625 C-42.85374133 53.14309719 -48.06761584 45.89178459 -49.10546875 35.90625 C-49.74569289 25.04197965 -47.61312596 16.92569127 -40.9296875 8.14453125 C-30.53878918 -3.40639609 -14.02067107 -5.90885844 0 0 Z " fill="#FCFDFD" transform="translate(372.53515625,100.74609375)"/>
<path d="M0 0 C8.0096147 5.6290481 12.8105394 12.30715476 15.5234375 21.7734375 C16.5752899 31.98619046 15.54932691 40.90908697 9.67578125 49.46484375 C3.66225382 56.78803233 -3.56043539 60.80139513 -12.4765625 63.7734375 C-22.02057803 64.67187106 -30.34552205 63.50443691 -38.2109375 57.78515625 C-46.13399191 50.99898982 -51.7075127 43.70967516 -52.8828125 33.109375 C-53.15940366 21.42339851 -50.8002039 13.08778715 -42.6015625 4.2734375 C-31.11981924 -6.30648301 -13.38903004 -7.81332438 0 0 Z " fill="#FDFDFD" transform="translate(147.4765625,665.2265625)"/>
<path d="M0 0 C8.10403423 4.73903732 14.17976775 11.97411732 17 21 C17.42106506 23.78516639 17.4775691 26.49907675 17.4375 29.3125 C17.42992676 30.05943115 17.42235352 30.8063623 17.41455078 31.57592773 C17.23276143 37.69639046 16.12102659 42.66499518 13 48 C12.38125 49.07314453 12.38125 49.07314453 11.75 50.16796875 C6.89889641 57.51353186 -0.63153602 61.68354239 -9 64 C-20.4647047 65.35184727 -28.92596149 63.35438274 -38.12109375 56.39453125 C-44.14410236 50.94144173 -48.56586202 42.74254527 -49.30859375 34.62890625 C-49.81815587 22.79330098 -47.05161283 14.0543778 -39 5 C-36.4140625 3.05078125 -36.4140625 3.05078125 -33.625 1.3125 C-32.70976562 0.73113281 -31.79453125 0.14976562 -30.8515625 -0.44921875 C-20.55218465 -6.05038725 -10.31631214 -5.04840807 0 0 Z " fill="#FDFDFD" transform="translate(371,486)"/>
<path d="M0 0 C139.08114207 0 139.08114207 0 176.4375 36 C197.90902201 58.62741145 202.11086781 85.5264288 201.34765625 115.54296875 C200.36834509 146.22701925 190.17161522 175.06140565 167.5 196.4375 C121.51378306 236.19709236 55.62331931 228 0 228 C0 152.76 0 77.52 0 0 Z M4 4 C4 76.6 4 149.2 4 224 C93.16344453 227.79025197 93.16344453 227.79025197 169.375 188.6953125 C181.03388513 176.34822929 188.06416862 162.23257756 192.6875 146 C192.99155762 144.93313965 192.99155762 144.93313965 193.30175781 143.84472656 C196.41109297 132.37807988 197.37786004 121.23907063 197.3125 109.375 C197.31034485 108.67101074 197.3081897 107.96702148 197.30596924 107.24169922 C197.17202695 79.94534412 191.19879616 57.25928872 171.41308594 37.38720703 C129.44618827 -3.81111926 54.18119163 4 4 4 Z " fill="#030205" transform="translate(524,231)"/>
<path d="M0 0 C4.63612539 2.75024388 8.49506146 7.27803827 10.19921875 12.421875 C11.26066341 18.49379499 11.66531266 24.43323891 8.4375 29.875 C4.89937728 34.75241211 0.54142338 39.00526915 -5.4375 40.5 C-12.98976375 41.48392169 -18.34775367 40.08536236 -24.4375 35.5 C-29.59877441 30.80449913 -31.45712756 25.58196358 -31.9375 18.75 C-31.76985794 11.80333203 -28.52565884 6.61616935 -23.71484375 1.76171875 C-17.08713497 -3.23368808 -7.47550279 -3.19968738 0 0 Z " fill="#FBFBFC" transform="translate(1072.4375,255.5)"/>
<path d="M0 0 C5.98730978 2.68794447 9.84397563 7.11615676 13.08984375 12.72265625 C14.62002715 19.14942654 14.32125933 24.68187006 11.05078125 30.4921875 C7.58660121 35.30354867 3.33921849 38.49786189 -2.28515625 40.34765625 C-8.5312089 41.25490412 -13.85853575 41.15472418 -19.28515625 37.72265625 C-24.01610763 34.08873708 -27.10196572 30.30743075 -28.28515625 24.34765625 C-28.79774441 18.37403268 -28.86758486 13.38544648 -25.28515625 8.34765625 C-17.76487917 0.79544594 -10.8805159 -3.10606181 0 0 Z " fill="#FCFCFC" transform="translate(832.28515625,252.65234375)"/>
<path d="M0 0 C5.28394267 2.94844001 8.91543295 7.80879886 10.8125 13.5 C11.59595685 20.01168238 10.63146138 25.11820211 6.8125 30.5 C2.25819544 35.41615342 -2.39116491 37.55408667 -9 37.9375 C-14.49893328 37.82276816 -18.03227983 36.0107763 -22.1875 32.5 C-27.23253632 27.18943545 -28.73447409 22.28541185 -28.5625 15.0625 C-27.81510348 9.95529047 -25.23003613 6.29671669 -21.40234375 2.9296875 C-14.81954858 -1.96198619 -7.64452319 -3.33712839 0 0 Z " fill="#FAFBFB" transform="translate(818.1875,909.5)"/>
<path d="M0 0 C4.69485675 2.78478195 9.58263023 6.57791288 11.3515625 11.94140625 C12.38993573 17.66284276 12.66297406 23.18134715 10.1171875 28.46875 C6.15881008 32.84379873 1.72221989 37.52727589 -4.37109375 38.39453125 C-11.88185101 38.43455305 -17.76749188 36.43156171 -23.2578125 31.09375 C-27.40638356 25.51463719 -27.11782284 18.73854685 -26.2578125 12.09375 C-24.14653418 6.36442634 -20.6147445 3.00512609 -15.2578125 0.09375 C-10.26871832 -1.56928139 -4.96030959 -1.99098932 0 0 Z " fill="#FBFBFC" transform="translate(815.2578125,480.90625)"/>
<path d="M0 0 C8.14749951 4.65571401 14.88116315 10.31486631 18.3671875 19.296875 C20.74312722 29.44595085 19.87635249 38.51126852 14.64453125 47.578125 C12.68108331 50.46966354 10.69947385 52.77293408 8 55 C7.48050781 55.46148438 6.96101562 55.92296875 6.42578125 56.3984375 C2.3168163 60 2.3168163 60 0 60 C0 40.2 0 20.4 0 0 Z " fill="#F8F8F9" transform="translate(528,667)"/>
<path d="M0 0 C23.43 0 46.86 0 71 0 C60.97439681 10.02560319 48.8749217 12.93387002 35.0625 13.3125 C22.85621224 13.07342146 12.37218179 9.28617078 2 3 C1.34 2.01 0.68 1.02 0 0 Z " fill="#FAFAFB" transform="translate(773,759)"/>
</svg>
